<svg width="140" height="28" viewBox="0 0 140 28" fill="none" xmlns="http://www.w3.org/2000/svg">
<path d="M87.8445 4.86151H88.4273L88.457 4.83299L87.9631 0.0285132L87.9334 0H87.7853L87.7556 0.0285132L87.2371 4.83299L87.2667 4.86151H87.8445Z" fill="black"/>
<path d="M90.6598 5.17047L90.6894 5.14195L91.534 0.836454L91.5043 0.812693L91.3562 0.78418L91.3315 0.812693L89.4695 4.89009L89.4991 4.9186L90.6598 5.17047Z" fill="black"/>
<path d="M89.7904 7.01416C89.9253 7.01228 90.0567 6.97218 90.1681 6.89888C90.2794 6.82558 90.3659 6.72233 90.4166 6.60203C90.4674 6.48172 90.4801 6.3497 90.4533 6.22246C90.4265 6.09521 90.3613 5.97839 90.2659 5.88659C90.1705 5.79478 90.0491 5.73207 89.9168 5.70628C89.7846 5.68049 89.6474 5.69277 89.5224 5.74158C89.3973 5.7904 89.29 5.87358 89.2138 5.98074C89.1376 6.0879 89.096 6.21428 89.094 6.3441C89.0934 6.43227 89.1109 6.51969 89.1457 6.60127C89.1804 6.68285 89.2317 6.75697 89.2965 6.81931C89.3613 6.88166 89.4384 6.93099 89.5231 6.96444C89.6079 6.99789 89.6988 7.01479 89.7904 7.01416Z" fill="black"/>
<path d="M87.8445 6.81934C87.9794 6.81745 88.1108 6.77736 88.2221 6.70406C88.3335 6.63076 88.42 6.52751 88.4707 6.4072C88.5214 6.2869 88.5342 6.15488 88.5074 6.02763C88.4806 5.90039 88.4154 5.78357 88.32 5.69176C88.2246 5.59996 88.1032 5.53724 87.9709 5.51145C87.8387 5.48566 87.7015 5.49794 87.5764 5.54676C87.4514 5.59557 87.3441 5.67875 87.2679 5.78591C87.1917 5.89307 87.15 6.01946 87.1481 6.14927C87.1474 6.23744 87.165 6.32486 87.1998 6.40644C87.2345 6.48802 87.2858 6.56214 87.3506 6.62449C87.4154 6.68684 87.4924 6.73617 87.5772 6.76962C87.662 6.80307 87.7529 6.81997 87.8445 6.81934Z" fill="black"/>
<path d="M85.0292 5.17047L86.1899 4.9186L86.2195 4.89009L84.3625 0.812693L84.3328 0.78418L84.1847 0.812693L84.155 0.836454L84.9996 5.14195L85.0292 5.17047Z" fill="black"/>
<path d="M85.2022 6.3441C85.2015 6.43227 85.2191 6.51969 85.2538 6.60127C85.2886 6.68285 85.3399 6.75697 85.4047 6.81931C85.4695 6.88166 85.5465 6.93099 85.6313 6.96444C85.7161 6.99789 85.8069 7.01479 85.8986 7.01416C86.0335 7.01228 86.1648 6.97218 86.2762 6.89888C86.3876 6.82558 86.474 6.72233 86.5248 6.60203C86.5755 6.48172 86.5883 6.3497 86.5615 6.22246C86.5347 6.09521 86.4695 5.97839 86.3741 5.88659C86.2787 5.79478 86.1572 5.73207 86.025 5.70628C85.8927 5.68049 85.7555 5.69277 85.6305 5.74158C85.5055 5.7904 85.3982 5.87358 85.322 5.98074C85.2458 6.0879 85.2041 6.21428 85.2022 6.3441Z" fill="black"/>
<path d="M5.95146 8.21655H0.0296338L0 8.24507C0 8.24507 0.14323 9.6137 0.14323 11.9851V24.0034C0.14323 26.3795 0 27.7481 0 27.7481L0.0296338 27.7766H3.92154L3.95117 27.7481C3.95117 27.7481 3.80301 26.3795 3.80301 24.0034V20.482L3.83264 20.4345C4.35617 20.4915 5.54646 20.5485 5.95146 20.5485C9.9619 20.5485 13.3895 18.2009 13.3895 14.2328C13.3895 10.3931 9.93227 8.21655 5.95146 8.21655ZM5.77859 17.3503C5.1176 17.3469 4.45759 17.3009 3.80301 17.2125V11.429H6.06999C8.07521 11.429 9.6705 12.2084 9.6705 14.2519C9.6705 16.2953 8.27771 17.3503 5.77859 17.3503Z" fill="black"/>
<path d="M24.5022 9.80854C24.2679 9.30253 24.0747 8.77981 23.9244 8.24507L23.8947 8.21655H20.7437L20.7141 8.24507C20.5816 8.78191 20.3964 9.30543 20.1609 9.80854L13.2957 25.6619C12.9932 26.3928 12.602 27.0867 12.1301 27.7291V27.7576H16.1406L16.1702 27.7291C16.2766 27.1184 16.4711 26.525 16.7481 25.966L17.9976 22.9769H26.8285L28.1521 25.9851C28.5868 27.1303 28.8485 27.7481 28.8485 27.7481L28.8782 27.7766H32.8935V27.7481C32.4515 27.0824 32.0635 26.385 31.7329 25.6619L24.5022 9.80854ZM19.3608 19.7882L22.2254 12.8832H22.255L25.3666 19.7834L19.3608 19.7882Z" fill="black"/>
<path d="M52.9556 8.24507L52.926 8.21655H49.3897L49.36 8.24507C49.36 8.24507 49.5033 9.6137 49.5033 11.9851V21.8221H49.4736L38.4943 8.21655H34.6024L34.5728 8.24507C34.9174 8.83267 35.1436 9.47759 35.2395 10.1459V24.0034C35.2395 26.3795 35.0963 27.7481 35.0963 27.7481L35.1259 27.7766H38.6672L38.6968 27.7481C38.6968 27.7481 38.5536 26.3795 38.5536 24.0034V13.9715L49.5922 27.7766H52.9013L52.9309 27.7481C52.9309 27.7481 52.7877 26.3795 52.7877 24.0034V11.9851C52.8124 9.6137 52.9556 8.24507 52.9556 8.24507Z" fill="black"/>
<path d="M63.9893 8.21655H57.1933L57.1637 8.24507C57.1637 8.24507 57.3119 9.6137 57.3119 11.9851V24.0034C57.3119 26.3795 57.1637 27.7481 57.1637 27.7481L57.1933 27.7766H59.2677C60.6407 27.7766 62.1718 27.943 63.9103 27.943C70.1581 27.943 74.5686 23.6945 74.5686 18.0204C74.5686 12.3462 70.2618 8.21655 63.9893 8.21655ZM63.7572 24.7115C62.9496 24.7437 62.1409 24.6863 61.347 24.5404C61.026 24.4596 60.9716 24.3455 60.9716 23.8133V11.4053H63.6733C68.0541 11.4053 70.8743 14.2566 70.8743 18.0584C70.8743 21.8601 68.0541 24.7115 63.7572 24.7115Z" fill="black"/>
<path d="M87.8444 7.9361C86.4695 7.91624 85.1045 8.16215 83.8302 8.65926C82.5559 9.15638 81.3983 9.89458 80.426 10.8301C79.4537 11.7657 78.6865 12.8795 78.1698 14.1056C77.6532 15.3317 77.3976 16.6451 77.4183 17.968C77.4183 20.6286 78.5167 23.1803 80.472 25.0616C82.4273 26.943 85.0792 27.9999 87.8444 27.9999C90.6096 27.9999 93.2615 26.943 95.2168 25.0616C97.1721 23.1803 98.2706 20.6286 98.2706 17.968C98.2967 16.6437 98.0449 15.3279 97.5302 14.0994C97.0155 12.8709 96.2485 11.7549 95.2751 10.8183C94.3017 9.88171 93.1419 9.1437 91.8651 8.64846C90.5883 8.15322 89.2208 7.91093 87.8444 7.9361ZM87.8444 24.7827C84.0711 24.7827 81.1373 21.8221 81.1373 17.968C81.1373 14.114 84.0711 11.1486 87.8444 11.1486C91.6178 11.1486 94.5812 14.1092 94.5812 17.968C94.5812 21.8268 91.6474 24.7827 87.8444 24.7827Z" fill="black"/>
<path d="M112.762 21.1235C112.319 20.3758 111.608 19.8096 110.761 19.5315V19.484C112.88 19.0373 114.856 16.6612 114.856 14.2851C114.856 11.0441 112.268 8.19751 108.292 8.19751H101.787L101.758 8.22602C101.758 8.22602 101.901 9.59466 101.901 11.966V24.0033C101.901 26.3794 101.758 27.7481 101.758 27.7481L101.787 27.7766H105.694L105.719 27.7481C105.719 27.7481 105.575 26.3794 105.575 24.0033V20.2586C107.521 20.2586 108.277 20.6198 108.973 21.6843L110.633 24.2362C111.37 25.3526 112.021 26.5201 112.579 27.7291L112.608 27.7576H117.256V27.7291C116.341 26.6169 115.5 25.4503 114.737 24.2362L112.762 21.1235ZM107.388 17.1554C106.777 17.1709 106.165 17.1343 105.561 17.0461V11.4052H107.798C109.976 11.4052 111.137 12.7739 111.137 14.3374C111.127 15.8153 109.946 17.1554 107.388 17.1554Z" fill="black"/>
<path d="M138.839 25.6619L131.609 9.7895C131.374 9.28349 131.181 8.76076 131.031 8.22602L131.001 8.19751H127.835L127.806 8.22602C127.673 8.76287 127.488 9.28638 127.253 9.7895L120.402 25.6619C120.1 26.3927 119.708 27.0866 119.237 27.7291V27.7576H123.247L123.277 27.7291C123.383 27.1184 123.578 26.525 123.855 25.966L125.104 22.9769H133.935L135.268 25.966C135.703 27.1113 135.965 27.7291 135.965 27.7291L135.995 27.7576H140V27.7291C139.559 27.0695 139.171 26.3784 138.839 25.6619ZM126.467 19.7834L129.347 12.8832H129.371L132.483 19.7834H126.467Z" fill="black"/>
</svg>
